Coordinates
version=1
nRows=9
nColumns=36
inDegrees=yes

Units are S.I. units (second, meters, Newtons, ...)
If the header above contains a line with 'inDegrees', this indicates whether rotational values are in degrees (yes) or radians (no).

endheader
time	pelvis_tilt	pelvis_list	pelvis_rotation	pelvis_tx	pelvis_ty	pelvis_tz	hip_flexion_r	hip_adduction_r	hip_rotation_r	knee_angle_r	knee_angle_r_beta	ankle_angle_r	subtalar_angle_r	mtp_angle_r	hip_flexion_l	hip_adduction_l	hip_rotation_l	knee_angle_l	knee_angle_l_beta	ankle_angle_l	subtalar_angle_l	mtp_angle_l	lumbar_extension	lumbar_bending	lumbar_rotation	arm_flex_r	arm_add_r	arm_rot_r	elbow_flex_r	pro_sup_r	arm_flex_l	arm_add_l	arm_rot_l	elbow_flex_l	pro_sup_l
      0.00000000	    -74.19162856	     89.78399926	     49.87835298	      1.72759527	      0.88740579	     -0.39561564	     80.80303019	     29.99034229	      0.88951509	     78.70602135	      1.37367921	     49.97369861	     34.71727308	     -7.67073836	    117.12876432	     29.98977203	    -12.67340164	    120.45192493	      2.10228268	    -49.89574629	     34.85282241	     -7.67073836	     -5.82505437	    -89.81518145	     55.79700145	     37.22113869	     27.60061974	    -14.73744360	      0.43769175	      3.60836916	     44.41598946	     37.78539215	   -163.46603100	     27.53635287	     54.86826490
      0.01694910	    -89.77219640	     79.48523486	     82.85903780	      1.74841317	      0.86862816	     -0.37623131	     85.89840690	     29.98885844	     10.99500632	     66.85714701	      1.16687734	     49.95826464	    -34.76305243	     -7.46142531	    119.95611409	     29.98873856	      2.37531726	    111.17121984	      1.94030382	    -49.90605041	     34.79872619	     -7.46142531	    -88.74700161	    -85.13549198	    -22.04358911	     62.00244178	     29.38670435	   -173.15863724	     59.84337764	     14.11701394	     48.20951270	     42.02252956	   -160.18268570	     35.55079110	     59.11513514
      0.03389830	     87.10030592	     30.68068689	    -99.60607927	      1.75997375	      0.85881763	     -0.39443481	     97.48125262	     29.98367566	      0.22468235	    138.86496994	      2.42365094	     49.95134154	    -34.79774993	     -7.52339937	    119.92612034	     18.76112033	      0.48914121	    131.36889053	      2.29281967	    -49.20214727	     30.38777469	     -7.52339937	    -89.30761542	    -73.69290244	     34.88064583	     44.68274130	     33.62635483	   -163.77700539	     82.98816419	     17.36266503	     27.33856628	     50.88368919	   -165.73455155	     31.69882427	     77.94597609
      0.05084750	     89.74064302	      1.66959649	   -134.71719826	      1.77724297	      0.85339360	     -0.40474722	    108.87695237	     29.96557768	     11.25785697	    139.92996032	      2.44223853	     49.93411429	     34.68912132	     -7.50627939	    114.10595300	    -11.73896828	    -11.73741362	    133.52622760	      2.33047231	    -49.74797318	     34.85693885	     -7.50627939	    -89.55092386	    -89.94661378	     89.55031293	     17.08778243	     17.71258308	   -195.45295960	     62.94632801	     26.18055271	     -3.02713778	     48.76518183	   -153.91207276	     45.76906033	    100.23437837
      0.06779660	     89.63862708	      0.92103826	   -124.77470292	      1.79366274	      0.84213500	     -0.39033768	    119.16967376	     29.93092598	      7.81777538	    130.80224106	      2.28292978	     37.80995749	     25.52376460	     -7.50457760	    119.76960039	     -1.43149395	     12.39981993	    101.43474763	      1.77037032	    -48.68873186	     34.75168229	     -7.50457760	    -89.60410202	    -89.88741391	     89.60281745	     12.06745081	     24.48313206	   -194.12130814	     60.94571521	     31.62719599	    -14.61449624	     48.69054596	   -140.89662631	     50.86356282	     96.26348937
      0.08474580	     88.95720415	     -9.29882510	   -141.34313147	      1.78661742	      0.87090170	     -0.41216990	    117.67236024	     29.90902005	    -12.07734965	    116.28853931	      2.02961789	     10.90977748	     34.68232333	     -7.50233892	     92.76856893	    -19.17225969	     22.45185595	     62.57735570	      1.09218089	    -49.22296548	    -33.07244992	     -7.50233892	    -89.60467482	    -89.94856825	     89.60474868	      4.20671401	     28.92759818	   -198.11240014	     78.02460797	     42.29059133	    -21.20126767	     50.55169163	   -163.22321107	     66.89491451	     82.38374965
      0.10169490	     74.78478046	    -23.81073190	   -157.82781839	      1.78216063	      0.88760951	     -0.41522742	     96.02707345	     29.94446396	    -25.07008178	    101.79779562	      1.77670670	    -19.33259509	     30.52364909	     -7.50075930	     54.52621345	    -32.72429115	     20.36800178	     33.41154009	      0.58314138	    -49.85646252	      0.43206276	     -7.50075930	    -89.02683354	    -89.96061266	     89.02911509	     -3.49336344	     36.38586057	   -193.62558659	    108.84254097	     52.14475947	    -29.80222364	     53.98084777	   -190.84795216	     71.38495442	     59.51704207
      0.11864410	     89.31663609	    -24.28221573	   -173.01350309	      1.78007295	      0.87050609	     -0.36260884	     87.10825221	     29.98090161	    -39.14603757	     88.83121866	      1.55039724	    -47.13164458	     16.42345760	     -7.50009488	     40.85566866	    -46.06790463	    -18.56767965	     19.26483441	      0.33623479	    -49.90581386	     -2.41790905	     -7.50009488	     89.77415557	    -29.55780013	     59.48402728	     10.00068661	     42.85062312	      3.99329295	     44.17705741	    106.48872253	     17.97052194	     10.63830784	   -401.53616553	     75.61761296	     97.19644183
      0.13559320	     78.93966041	    -29.61062906	   -172.07563324	      1.75011338	      0.85559244	     -0.32503272	     63.01178830	     29.98451699	    -39.77822788	     72.96042062	      1.27339956	    -49.82599935	      8.47538403	     -7.50004669	     28.22020776	    -37.61490086	    -35.40012469	     14.58520181	      0.25455979	    -49.92179257	     -5.91230440	     -7.50004669	     82.85935076	    -26.05825970	     31.22895088	     -4.74026951	     35.89457562	     34.68604105	     36.58340053	    105.59052054	      5.36478818	     -0.94647218	   -424.24218621	     90.72294896	     85.89395677
